<mxfile host="app.diagrams.net" modified="2022-06-06T17:00:11.072Z" agent="5.0 (Windows NT 10.0; Win64; x64) AppleWebKit/537.36 (KHTML, like Gecko) Chrome/102.0.5005.63 Safari/537.36" etag="XK0NOxc1PHUwrI0vgedo" version="18.2.1" type="github">
  <diagram id="kupyD5jBMJ_FT1GwSmo3" name="Page-1">
    <mxGraphModel dx="1422" dy="832" grid="1" gridSize="10" guides="1" tooltips="1" connect="1" arrows="1" fold="1" page="1" pageScale="1" pageWidth="827" pageHeight="1169" math="0" shadow="0">
      <root>
        <mxCell id="0" />
        <mxCell id="1" parent="0" />
        <mxCell id="pZ7pSCRCfvQDnvcKHiU7-1" value="ALUNO" style="rounded=0;whiteSpace=wrap;html=1;" vertex="1" parent="1">
          <mxGeometry x="194" y="230" width="220" height="90" as="geometry" />
        </mxCell>
        <mxCell id="pZ7pSCRCfvQDnvcKHiU7-4" value="CÓDIGO" style="ellipse;whiteSpace=wrap;html=1;" vertex="1" parent="1">
          <mxGeometry x="150" y="120" width="80" height="50" as="geometry" />
        </mxCell>
        <mxCell id="pZ7pSCRCfvQDnvcKHiU7-5" value="NOME" style="ellipse;whiteSpace=wrap;html=1;" vertex="1" parent="1">
          <mxGeometry x="270" y="120" width="80" height="50" as="geometry" />
        </mxCell>
        <mxCell id="pZ7pSCRCfvQDnvcKHiU7-6" value="CPF" style="ellipse;whiteSpace=wrap;html=1;" vertex="1" parent="1">
          <mxGeometry x="60" y="190" width="80" height="50" as="geometry" />
        </mxCell>
        <mxCell id="pZ7pSCRCfvQDnvcKHiU7-7" value="IDADE" style="ellipse;whiteSpace=wrap;html=1;" vertex="1" parent="1">
          <mxGeometry x="400" y="120" width="80" height="50" as="geometry" />
        </mxCell>
        <mxCell id="pZ7pSCRCfvQDnvcKHiU7-8" value="SEXO" style="ellipse;whiteSpace=wrap;html=1;" vertex="1" parent="1">
          <mxGeometry x="500" y="160" width="80" height="50" as="geometry" />
        </mxCell>
        <mxCell id="pZ7pSCRCfvQDnvcKHiU7-10" value="" style="endArrow=none;html=1;rounded=0;" edge="1" parent="1" target="pZ7pSCRCfvQDnvcKHiU7-7">
          <mxGeometry width="50" height="50" relative="1" as="geometry">
            <mxPoint x="400" y="230" as="sourcePoint" />
            <mxPoint x="450" y="180" as="targetPoint" />
          </mxGeometry>
        </mxCell>
        <mxCell id="pZ7pSCRCfvQDnvcKHiU7-11" value="" style="endArrow=none;html=1;rounded=0;entryX=0;entryY=1;entryDx=0;entryDy=0;exitX=1.005;exitY=0.6;exitDx=0;exitDy=0;exitPerimeter=0;" edge="1" parent="1" source="pZ7pSCRCfvQDnvcKHiU7-1" target="pZ7pSCRCfvQDnvcKHiU7-8">
          <mxGeometry width="50" height="50" relative="1" as="geometry">
            <mxPoint x="420" y="310" as="sourcePoint" />
            <mxPoint x="540" y="180" as="targetPoint" />
          </mxGeometry>
        </mxCell>
        <mxCell id="pZ7pSCRCfvQDnvcKHiU7-12" value="" style="endArrow=none;html=1;rounded=0;exitX=0.5;exitY=0;exitDx=0;exitDy=0;entryX=0.4;entryY=1.04;entryDx=0;entryDy=0;entryPerimeter=0;" edge="1" parent="1" source="pZ7pSCRCfvQDnvcKHiU7-1" target="pZ7pSCRCfvQDnvcKHiU7-5">
          <mxGeometry width="50" height="50" relative="1" as="geometry">
            <mxPoint x="260" y="230" as="sourcePoint" />
            <mxPoint x="310" y="180" as="targetPoint" />
          </mxGeometry>
        </mxCell>
        <mxCell id="pZ7pSCRCfvQDnvcKHiU7-13" value="" style="endArrow=none;html=1;rounded=0;entryX=0.7;entryY=1.02;entryDx=0;entryDy=0;entryPerimeter=0;exitX=0.191;exitY=0;exitDx=0;exitDy=0;exitPerimeter=0;" edge="1" parent="1" source="pZ7pSCRCfvQDnvcKHiU7-1" target="pZ7pSCRCfvQDnvcKHiU7-4">
          <mxGeometry width="50" height="50" relative="1" as="geometry">
            <mxPoint x="230" y="230" as="sourcePoint" />
            <mxPoint x="200" y="180" as="targetPoint" />
          </mxGeometry>
        </mxCell>
        <mxCell id="pZ7pSCRCfvQDnvcKHiU7-14" value="" style="endArrow=none;html=1;rounded=0;exitX=0;exitY=0.25;exitDx=0;exitDy=0;entryX=0.775;entryY=0.92;entryDx=0;entryDy=0;entryPerimeter=0;" edge="1" parent="1" source="pZ7pSCRCfvQDnvcKHiU7-1" target="pZ7pSCRCfvQDnvcKHiU7-6">
          <mxGeometry width="50" height="50" relative="1" as="geometry">
            <mxPoint x="110" y="350" as="sourcePoint" />
            <mxPoint x="160" y="300" as="targetPoint" />
          </mxGeometry>
        </mxCell>
        <mxCell id="pZ7pSCRCfvQDnvcKHiU7-16" value="EMAIL" style="ellipse;whiteSpace=wrap;html=1;" vertex="1" parent="1">
          <mxGeometry x="114" y="340" width="80" height="50" as="geometry" />
        </mxCell>
        <mxCell id="pZ7pSCRCfvQDnvcKHiU7-17" value="DATA DE NAS." style="ellipse;whiteSpace=wrap;html=1;" vertex="1" parent="1">
          <mxGeometry x="70" y="270" width="80" height="50" as="geometry" />
        </mxCell>
        <mxCell id="pZ7pSCRCfvQDnvcKHiU7-18" value="CEP" style="ellipse;whiteSpace=wrap;html=1;" vertex="1" parent="1">
          <mxGeometry x="500" y="240" width="80" height="50" as="geometry" />
        </mxCell>
        <mxCell id="pZ7pSCRCfvQDnvcKHiU7-19" value="" style="endArrow=none;html=1;rounded=0;entryX=0;entryY=1;entryDx=0;entryDy=0;exitX=0.725;exitY=0.04;exitDx=0;exitDy=0;exitPerimeter=0;" edge="1" parent="1" source="pZ7pSCRCfvQDnvcKHiU7-16" target="pZ7pSCRCfvQDnvcKHiU7-1">
          <mxGeometry width="50" height="50" relative="1" as="geometry">
            <mxPoint x="170" y="340" as="sourcePoint" />
            <mxPoint x="220" y="290" as="targetPoint" />
          </mxGeometry>
        </mxCell>
        <mxCell id="pZ7pSCRCfvQDnvcKHiU7-20" value="" style="endArrow=none;html=1;rounded=0;entryX=0.005;entryY=0.633;entryDx=0;entryDy=0;entryPerimeter=0;exitX=1;exitY=0.5;exitDx=0;exitDy=0;" edge="1" parent="1" source="pZ7pSCRCfvQDnvcKHiU7-17" target="pZ7pSCRCfvQDnvcKHiU7-1">
          <mxGeometry width="50" height="50" relative="1" as="geometry">
            <mxPoint x="150" y="300" as="sourcePoint" />
            <mxPoint x="200" y="250" as="targetPoint" />
          </mxGeometry>
        </mxCell>
        <mxCell id="pZ7pSCRCfvQDnvcKHiU7-21" value="" style="endArrow=none;html=1;rounded=0;entryX=0.075;entryY=0.72;entryDx=0;entryDy=0;entryPerimeter=0;exitX=1;exitY=0.75;exitDx=0;exitDy=0;" edge="1" parent="1" source="pZ7pSCRCfvQDnvcKHiU7-1" target="pZ7pSCRCfvQDnvcKHiU7-18">
          <mxGeometry width="50" height="50" relative="1" as="geometry">
            <mxPoint x="430" y="310" as="sourcePoint" />
            <mxPoint x="480" y="260" as="targetPoint" />
          </mxGeometry>
        </mxCell>
        <mxCell id="pZ7pSCRCfvQDnvcKHiU7-22" value="NÚMERO" style="ellipse;whiteSpace=wrap;html=1;" vertex="1" parent="1">
          <mxGeometry x="500" y="320" width="80" height="50" as="geometry" />
        </mxCell>
        <mxCell id="pZ7pSCRCfvQDnvcKHiU7-23" value="" style="endArrow=none;html=1;rounded=0;entryX=0;entryY=0.5;entryDx=0;entryDy=0;exitX=1;exitY=1;exitDx=0;exitDy=0;" edge="1" parent="1" source="pZ7pSCRCfvQDnvcKHiU7-1" target="pZ7pSCRCfvQDnvcKHiU7-22">
          <mxGeometry width="50" height="50" relative="1" as="geometry">
            <mxPoint x="410" y="320" as="sourcePoint" />
            <mxPoint x="440" y="390" as="targetPoint" />
          </mxGeometry>
        </mxCell>
      </root>
    </mxGraphModel>
  </diagram>
</mxfile>
